<svg version="1.2" xmlns="http://www.w3.org/2000/svg" viewBox="0 0 114 129" width="114" height="129">
	<style>
		.s0 { fill: #ffffff } 
	</style>
	<path id="Path 15" class="s0" d="m113.3 32.28v64.41l-55.82 32.26-55.82-32.26v-64.41l55.82-32.26zm-99.67 6.9v50.61l43.85 25.35 43.86-25.35v-50.61l-43.86-25.35z"/>
	<path id="Path 16" class="s0" d="m63.46 6.92v115.13h-11.96v-115.13z"/>
	<path id="Path 17" fill-rule="evenodd" class="s0" d="m107.32 58.5v11.97h-49.84v-11.97zm1108.79 23.96v-24.69h2.85v24.69zm9.35 0v-24.69h2.77l12.64 17.06q0.21 0.26 0.5 0.69 0.32 0.43 0.61 0.9 0.33 0.43 0.54 0.79h0.18q0-0.61 0-1.19 0-0.61 0-1.19v-17.06h2.77v24.69h-2.48l-12.89-17.42q-0.25-0.36-0.79-1.11-0.54-0.8-0.94-1.34h-0.14q0 0.62 0 1.23 0 0.57 0 1.22v17.42zm26.54 0v-24.69h2.85v24.69zm19.72 0.44q-3.78 0-6.41-1.41-2.59-1.4-3.96-4.24-1.33-2.85-1.33-7.13 0-6.41 3.09-9.58 3.1-3.2 8.68-3.2 3.2 0 5.61 1.04 2.45 1.01 3.82 3.06 1.4 2.02 1.4 5.15h-2.88q0-2.34-0.97-3.82-0.97-1.51-2.77-2.23-1.76-0.75-4.25-0.75-2.66-0.01-4.64 1.04-1.98 1.04-3.06 3.27-1.08 2.2-1.08 5.77v0.75q0 3.49 1.08 5.65 1.08 2.16 3.06 3.17 1.98 1.01 4.68 1.01 2.48 0 4.28-0.72 1.8-0.76 2.77-2.23 0.98-1.51 0.98-3.86h2.8q0 3.17-1.44 5.23-1.4 2.05-3.85 3.06-2.45 0.97-5.61 0.97zm16-0.44v-24.69h2.84v24.69zm20.29 0.44q-3.81 0-6.58-1.41-2.74-1.44-4.22-4.28-1.47-2.84-1.47-7.09 0-4.29 1.47-7.09 1.48-2.85 4.22-4.25 2.77-1.44 6.58-1.44 3.86 0 6.59 1.44 2.77 1.4 4.21 4.25 1.48 2.8 1.48 7.09 0 4.25-1.48 7.09-1.44 2.84-4.21 4.28-2.73 1.41-6.59 1.41zm0-2.45q2.13 0 3.86-0.54 1.72-0.58 2.95-1.8 1.22-1.23 1.87-3.1 0.68-1.87 0.68-4.5v-0.75q0-2.67-0.68-4.54-0.65-1.87-1.87-3.09-1.23-1.23-2.95-1.77-1.73-0.58-3.86-0.57-2.12-0.01-3.85 0.57-1.69 0.54-2.91 1.77-1.23 1.22-1.91 3.09-0.65 1.87-0.65 4.54v0.75q0 2.63 0.65 4.5 0.68 1.87 1.91 3.1 1.22 1.22 2.91 1.8 1.73 0.54 3.85 0.54z"/>
</svg>