<svg version="1.2" xmlns="http://www.w3.org/2000/svg" viewBox="0 0 689 122" width="689" height="122">
	<style>
		.s0 { fill: #ffffff } 
	</style>
	<path id="Path 35" class="s0" d="m177.77 79.4q-4.04 0-7.54-1.3-3.45-1.35-6-3.8-2.54-2.44-3.99-5.74-1.4-3.3-1.4-7.25 0-3.94 1.4-7.24 1.45-3.3 3.99-5.75 2.6-2.44 6.05-3.74 3.45-1.35 7.54-1.35 4.55 0 8.2 1.6 3.7 1.55 6.19 4.59l-5.19 4.8q-1.8-2.05-4-3.05-2.2-1.05-4.8-1.05-2.44 0-4.49 0.8-2.05 0.8-3.55 2.3-1.5 1.5-2.35 3.55-0.8 2.05-0.8 4.54 0 2.5 0.8 4.55 0.85 2.05 2.35 3.55 1.5 1.5 3.55 2.3 2.05 0.8 4.49 0.8 2.6 0 4.8-1 2.2-1.05 4-3.15l5.19 4.79q-2.49 3.05-6.19 4.65-3.65 1.6-8.25 1.6zm19.91-0.6v-34.97h8.09v28.38h17.54v6.59zm38.25 0h-8.1v-34.97h26.43v6.49h-18.33zm-0.6-19.23h16.78v6.49h-16.78zm33.97 19.24l15.58-34.98h8l15.64 34.98h-8.5l-12.79-30.88h3.2l-12.84 30.88zm7.79-7.5l2.15-6.14h17.99l2.2 6.14zm35.05 7.5v-34.98h15.14q4.7 0 8.09 1.55 3.4 1.5 5.25 4.35 1.85 2.85 1.85 6.79 0 3.9-1.85 6.75-1.85 2.8-5.25 4.3-3.39 1.49-8.09 1.49h-10.64l3.6-3.54v13.29zm22.23 0l-8.74-12.69h8.64l8.84 12.69zm-14.14-12.39l-3.59-3.8h10.19q3.75 0 5.59-1.6 1.85-1.65 1.85-4.5 0-2.89-1.85-4.49-1.84-1.6-5.59-1.6h-10.19l3.59-3.85zm45.59 12.99q-4.1 0-7.65-1.35-3.5-1.35-6.09-3.79-2.55-2.45-4-5.75-1.4-3.3-1.4-7.19 0-3.9 1.4-7.2 1.45-3.3 4.05-5.75 2.59-2.44 6.09-3.79 3.5-1.35 7.6-1.35 4.14 0 7.59 1.35 3.5 1.35 6.05 3.79 2.59 2.4 4.04 5.7 1.45 3.3 1.45 7.25 0 3.89-1.45 7.24-1.45 3.3-4.04 5.75-2.55 2.39-6.05 3.74-3.45 1.35-7.59 1.35zm11.44 7.45q-2.05 0-3.9-0.45-1.8-0.45-3.6-1.45-1.75-1-3.69-2.7-1.9-1.7-4.15-4.2l8.49-2.15q1.35 1.85 2.5 2.95 1.15 1.1 2.2 1.55 1.1 0.45 2.3 0.45 3.2 0 5.69-2.6l3.6 4.3q-3.55 4.3-9.44 4.3zm-11.44-14.34q2.34 0 4.29-0.8 2-0.8 3.5-2.3 1.5-1.5 2.3-3.55 0.85-2.1 0.85-4.54 0-2.5-0.85-4.55-0.8-2.05-2.3-3.55-1.5-1.5-3.5-2.3-1.95-0.8-4.29-0.8-2.35 0-4.35 0.8-2 0.8-3.5 2.3-1.45 1.5-2.3 3.55-0.8 2.05-0.8 4.55 0 2.44 0.8 4.54 0.85 2.05 2.3 3.55 1.5 1.5 3.5 2.3 2 0.8 4.35 0.8zm40.75 6.89q-7.44 0-11.64-4.15-4.19-4.14-4.19-11.84v-19.58h8.09v19.28q0 5 2.05 7.2 2.05 2.2 5.74 2.2 3.7 0 5.75-2.2 2.05-2.2 2.05-7.2v-19.28h7.99v19.58q0 7.7-4.2 11.84-4.19 4.15-11.64 4.15zm23.84-0.6v-34.97h8.09v34.97zm23.64 0v-28.38h-11.19v-6.59h30.48v6.59h-11.19v28.38zm31.68-6.49h19.04v6.49h-27.08v-34.97h26.43v6.49h-18.39zm-0.6-14.39h16.84v6.3h-16.84zm42.81 21.48q-4.04 0-7.54-1.3-3.45-1.35-6-3.79-2.54-2.45-3.99-5.75-1.4-3.3-1.4-7.24 0-3.95 1.4-7.25 1.45-3.3 3.99-5.74 2.6-2.45 6.05-3.75 3.45-1.35 7.54-1.35 4.55 0 8.2 1.6 3.69 1.55 6.19 4.6l-5.19 4.79q-1.8-2.05-4-3.05-2.2-1.05-4.8-1.05-2.44 0-4.49 0.8-2.05 0.8-3.55 2.3-1.5 1.5-2.35 3.55-0.8 2.05-0.8 4.55 0 2.49 0.8 4.54 0.85 2.05 2.35 3.55 1.5 1.5 3.55 2.3 2.05 0.8 4.49 0.8 2.6 0 4.8-1 2.2-1.05 4-3.15l5.19 4.8q-2.5 3.05-6.19 4.64-3.65 1.6-8.25 1.6zm26.81-0.6v-28.38h-11.19v-6.59h30.48v6.59h-11.19v28.38zm38.59 0.6q-7.45 0-11.64-4.14-4.2-4.15-4.2-11.85v-19.58h8.09v19.29q0 4.99 2.05 7.19 2.05 2.2 5.75 2.2 3.7 0 5.74-2.2 2.05-2.2 2.05-7.19v-19.29h8v19.58q0 7.7-4.2 11.85-4.2 4.14-11.64 4.14zm23.84-0.6v-34.97h15.13q4.7 0 8.1 1.55 3.4 1.5 5.24 4.34 1.85 2.85 1.85 6.8 0 3.9-1.85 6.74-1.84 2.8-5.24 4.3-3.4 1.5-8.1 1.5h-10.64l3.6-3.55v13.29zm22.23 0l-8.74-12.69h8.64l8.85 12.69zm-14.14-12.39l-3.6-3.79h10.19q3.75 0 5.6-1.6 1.85-1.65 1.85-4.5 0-2.9-1.85-4.5-1.85-1.6-5.6-1.6h-10.19l3.6-3.84zm24.05 12.39l15.58-34.98h8l15.64 34.98h-8.5l-12.79-30.88h3.2l-12.84 30.88zm7.79-7.5l2.15-6.14h17.99l2.2 6.14z"/>
	<path id="Path 37" class="s0" d="m105.61 30.47v60.66l-52.57 30.39-52.58-30.39v-60.66l52.58-30.39zm-93.89 6.5v47.67l41.31 23.87 41.31-23.87v-47.67l-41.31-23.88z"/>
	<path id="Path 38" class="s0" d="m58.67 6.58v108.44h-11.27v-108.44z"/>
	<path id="Path 39" class="s0" d="m99.98 55.17v11.26h-46.94v-11.26z"/>
</svg>