<svg version="1.2" xmlns="http://www.w3.org/2000/svg" viewBox="0 0 45 45" width="45" height="45">
	<style>
		.s0 { fill: #ffffff } 
	</style>
	<path id="Path 49" class="s0" d="m44.02 13.34c0.19 3.62 0.19 14.46 0 18.07-0.2 3.52-0.98 6.54-3.52 9.18-2.54 2.54-5.66 3.32-9.18 3.52-3.61 0.19-14.45 0.19-18.07 0-3.51-0.2-6.54-0.98-9.17-3.52-2.54-2.64-3.33-5.66-3.52-9.18-0.2-3.61-0.2-14.45 0-18.07 0.19-3.51 0.98-6.64 3.52-9.18 2.63-2.54 5.66-3.32 9.17-3.51 3.62-0.2 14.46-0.2 18.07 0 3.52 0.19 6.64 0.97 9.18 3.51 2.54 2.54 3.32 5.67 3.52 9.18zm-4.69 21.88c1.17-2.83 0.88-9.67 0.88-12.89 0-3.13 0.29-9.96-0.88-12.89-0.78-1.86-2.25-3.42-4.1-4.1-2.93-1.18-9.77-0.88-12.89-0.88-3.23 0-10.06-0.3-12.89 0.88-1.96 0.78-3.42 2.24-4.2 4.1-1.17 2.93-0.88 9.76-0.88 12.89 0 3.22-0.29 10.06 0.88 12.89 0.78 1.95 2.24 3.42 4.2 4.2 2.83 1.17 9.66 0.88 12.89 0.88 3.12 0 9.96 0.29 12.89-0.88 1.85-0.78 3.42-2.25 4.1-4.2zm-2.74-24.51c0-1.47-1.17-2.64-2.63-2.64-1.47 0-2.64 1.17-2.64 2.64 0 1.46 1.17 2.63 2.64 2.63 1.46 0 2.63-1.17 2.63-2.63zm-14.25 0.39c6.15 0 11.23 5.08 11.23 11.23 0 6.25-5.08 11.23-11.23 11.23-6.25 0-11.23-4.98-11.23-11.23 0-6.15 4.98-11.23 11.23-11.23zm0 18.55c4 0 7.22-3.22 7.22-7.32 0-4.01-3.22-7.23-7.22-7.23-4.1 0-7.33 3.22-7.33 7.23 0 4.1 3.32 7.32 7.33 7.32z"/>
</svg>