<svg version="1.2" xmlns="http://www.w3.org/2000/svg" viewBox="0 0 45 45" width="45" height="45">
	<style>
		.s0 { fill: #ffffff } 
	</style>
	<path id="Path 51" class="s0" d="m10.74 44.08h-9.08v-29.2h9.08zm-4.59-33.11c-2.83 0-5.17-2.44-5.17-5.37 0-4 4.29-6.54 7.81-4.49 1.66 0.88 2.63 2.64 2.63 4.49 0 2.93-2.34 5.37-5.27 5.37zm38.48 33.11h-8.99v-14.16c0-3.42-0.09-7.72-4.78-7.72-4.69 0-5.37 3.62-5.37 7.43v14.45h-9.08v-29.2h8.69v4h0.09c1.27-2.24 4.2-4.68 8.6-4.68 9.18 0 10.94 6.05 10.94 13.86v16.02z"/>
</svg>