<svg version="1.2" xmlns="http://www.w3.org/2000/svg" viewBox="0 0 97 192" width="97" height="192">
	<style>
		.s0 { fill: #ffffff } 
	</style>
	<path id="Path 173" class="s0" d="m95.01 0.58c0.39-0.4 1.02-0.4 1.41 0 0.39 0.39 0.39 1.02 0 1.41l-0.7-0.71zm-93.18 96.01c-0.39 0.39-1.03 0.39-1.42 0-0.39-0.39-0.39-1.02 0-1.41l0.71 0.7zm93.89-95.3l0.7 0.71-94.59 94.59-0.71-0.7-0.7-0.71 94.59-94.6z"/>
	<path id="Path 174" class="s0" d="m95.01 191.18c0.39 0.39 1.02 0.39 1.41 0 0.39-0.39 0.39-1.03 0-1.42l-0.7 0.71zm-93.18-96.01c-0.39-0.39-1.03-0.39-1.42 0-0.39 0.39-0.39 1.03 0 1.42l0.71-0.71zm93.89 95.3l0.7-0.71-94.59-94.59-0.71 0.71-0.7 0.7 94.59 94.6z"/>
</svg>